<svg width="33" height="32" viewBox="0 0 33 32" fill="none" xmlns="http://www.w3.org/2000/svg">
<rect x="0.266846" width="32" height="32" rx="16" fill="#5126EA"/>
<path d="M13.6752 13.7464C13.6355 13.3454 13.4648 13.0339 13.1632 12.8118C12.8615 12.5897 12.4522 12.4787 11.9352 12.4787C11.5838 12.4787 11.2872 12.5284 11.0453 12.6278C10.8033 12.724 10.6177 12.8582 10.4884 13.0305C10.3625 13.2029 10.2995 13.3984 10.2995 13.6172C10.2929 13.7995 10.331 13.9586 10.4139 14.0945C10.5 14.2304 10.6177 14.348 10.7668 14.4474C10.916 14.5436 11.0883 14.6281 11.2839 14.701C11.4794 14.7706 11.6882 14.8303 11.9103 14.88L12.8251 15.0987C13.2692 15.1982 13.6769 15.3307 14.0481 15.4964C14.4193 15.6622 14.7408 15.866 15.0126 16.108C15.2844 16.3499 15.4948 16.6349 15.644 16.9631C15.7964 17.2912 15.8743 17.6674 15.8776 18.0916C15.8743 18.7147 15.7152 19.255 15.4004 19.7124C15.0888 20.1664 14.6381 20.5194 14.0481 20.7713C13.4614 21.0199 12.7538 21.1442 11.9252 21.1442C11.1033 21.1442 10.3873 21.0182 9.7775 20.7663C9.17097 20.5144 8.69701 20.1416 8.35562 19.6477C8.01756 19.1506 7.84024 18.5357 7.82366 17.8033H9.90676C9.92996 18.1446 10.0277 18.4297 10.2001 18.6584C10.3757 18.8838 10.6094 19.0545 10.9011 19.1705C11.1961 19.2831 11.5292 19.3395 11.9004 19.3395C12.265 19.3395 12.5815 19.2865 12.8499 19.1804C13.1217 19.0743 13.3322 18.9268 13.4813 18.7379C13.6305 18.549 13.7051 18.3319 13.7051 18.0866C13.7051 17.858 13.6371 17.6657 13.5012 17.5099C13.3686 17.3542 13.1731 17.2216 12.9146 17.1122C12.6594 17.0028 12.3462 16.9034 11.9749 16.8139L10.8663 16.5355C10.0078 16.3267 9.33006 16.0002 8.8329 15.5561C8.33574 15.112 8.08882 14.5137 8.09213 13.7614C8.08882 13.1449 8.25288 12.6063 8.58432 12.1456C8.91907 11.6849 9.37811 11.3253 9.96145 11.0668C10.5448 10.8082 11.2077 10.679 11.9501 10.679C12.7058 10.679 13.3653 10.8082 13.9288 11.0668C14.4955 11.3253 14.9364 11.6849 15.2512 12.1456C15.5661 12.6063 15.7285 13.1399 15.7384 13.7464H13.6752ZM17.3256 21V10.8182H19.4783V19.2251H23.8434V21H17.3256Z" fill="white"/>
</svg>
